<svg width="61" height="48" viewBox="0 0 61 48" fill="none" xmlns="http://www.w3.org/2000/svg">
<path d="M51.7542 4.83142C51.7373 4.79869 51.7093 4.77305 51.6752 4.75908C47.7354 2.95147 43.5778 1.6625 39.3065 0.924426C39.2677 0.917212 39.2276 0.922416 39.1919 0.9393C39.1562 0.956183 39.1268 0.983886 39.1078 1.01847C38.5416 2.046 38.0277 3.10144 37.5679 4.18077C32.9636 3.48184 28.2802 3.48184 23.6759 4.18077C23.2131 3.0987 22.691 2.043 22.1118 1.01847C22.092 0.984638 22.0624 0.957573 22.0269 0.940799C21.9914 0.924025 21.9517 0.91832 21.913 0.924426C17.6412 1.66095 13.4833 2.95001 9.54404 4.75918C9.51032 4.77348 9.48186 4.79789 9.4626 4.82904C1.58485 16.5934 -0.573164 28.0686 0.485485 39.4016C0.488463 39.4294 0.496996 39.4563 0.510578 39.4807C0.524159 39.5051 0.542511 39.5265 0.564542 39.5437C5.15168 42.9401 10.2825 45.5326 15.7379 47.2106C15.7763 47.2221 15.8174 47.2216 15.8555 47.2091C15.8936 47.1967 15.927 47.1728 15.9511 47.1408C17.1228 45.5465 18.1611 43.8582 19.0552 42.0933C19.0675 42.0691 19.0745 42.0425 19.0758 42.0154C19.0771 41.9882 19.0726 41.9612 19.0627 41.9359C19.0527 41.9106 19.0375 41.8877 19.0181 41.8688C18.9987 41.8498 18.9754 41.8352 18.9499 41.8258C17.3127 41.1994 15.7277 40.4442 14.2098 39.5675C14.1822 39.5513 14.159 39.5285 14.1423 39.5012C14.1257 39.4739 14.1159 39.443 14.114 39.411C14.1122 39.3791 14.1182 39.3472 14.1315 39.3181C14.1449 39.2891 14.1652 39.2638 14.1907 39.2444C14.5101 39.0058 14.8239 38.7599 15.132 38.5069C15.159 38.4846 15.1917 38.4703 15.2264 38.4657C15.2611 38.461 15.2964 38.4661 15.3284 38.4804C25.273 43.0189 36.0394 43.0189 45.8663 38.4804C45.8983 38.4652 45.934 38.4594 45.9692 38.4636C46.0044 38.4679 46.0377 38.482 46.0651 38.5045C46.3736 38.7589 46.6882 39.0056 47.0089 39.2444C47.0345 39.2636 47.055 39.2887 47.0685 39.3177C47.0821 39.3466 47.0883 39.3785 47.0867 39.4104C47.085 39.4423 47.0755 39.4734 47.059 39.5008C47.0426 39.5282 47.0196 39.5511 46.9921 39.5675C45.4776 40.4516 43.8912 41.2063 42.2497 41.8234C42.2242 41.8331 42.2011 41.8481 42.1817 41.8674C42.1624 41.8866 42.1474 41.9098 42.1377 41.9352C42.1279 41.9607 42.1236 41.988 42.1251 42.0152C42.1266 42.0424 42.1339 42.069 42.1464 42.0933C43.0555 43.8484 44.0922 45.5345 45.2481 47.138C45.2716 47.1709 45.3048 47.1956 45.343 47.2085C45.3813 47.2215 45.4227 47.2221 45.4613 47.2103C50.9265 45.538 56.0663 42.9453 60.6592 39.5437C60.6815 39.5274 60.7001 39.5065 60.7138 39.4824C60.7274 39.4583 60.7357 39.4315 60.7382 39.404C62.0056 26.3018 58.6164 14.9207 51.7542 4.83142ZM20.5404 32.501C17.5463 32.501 15.0793 29.7534 15.0793 26.379C15.0793 23.0046 17.4985 20.2568 20.5404 20.2568C23.6061 20.2568 26.0492 23.0285 26.0013 26.3788C26.0013 29.7534 23.5821 32.501 20.5404 32.501ZM40.7316 32.501C37.7376 32.501 35.2706 29.7534 35.2706 26.379C35.2706 23.0046 37.6898 20.2568 40.7316 20.2568C43.7975 20.2568 46.2405 23.0285 46.1927 26.3788C46.1927 29.7534 43.7975 32.501 40.7316 32.501Z" fill="#3E4FAB"/>
</svg>
