<svg width="59" height="49" viewBox="0 0 59 49" fill="none" xmlns="http://www.w3.org/2000/svg">
<path d="M18.623 48.2383C40.838 48.2383 52.9904 29.8312 52.9904 13.8966C52.9904 13.3815 52.9904 12.8591 52.9683 12.344C55.3343 10.6313 57.3762 8.51083 58.9985 6.082C56.7885 7.05644 54.4465 7.69866 52.0485 7.98783C54.5744 6.47802 56.4662 4.10248 57.3723 1.30272C54.9992 2.70863 52.4018 3.69558 49.6938 4.22033C47.8733 2.28148 45.4642 0.997047 42.8398 0.565991C40.2154 0.134936 37.522 0.581312 35.177 1.83598C32.8319 3.09064 30.966 5.08357 29.8683 7.50607C28.7706 9.92858 28.5023 12.6454 29.105 15.2359C24.3027 14.9951 19.6047 13.7475 15.3156 11.5741C11.0264 9.40071 7.24208 6.35001 4.2079 2.61988C2.66757 5.28024 2.19749 8.42713 2.89312 11.4215C3.58876 14.4159 5.39796 17.0333 7.95332 18.7421C6.03845 18.6771 4.16567 18.1629 2.48604 17.241V17.4066C2.48934 20.1935 3.45479 22.8938 5.21922 25.0511C6.98364 27.2083 9.43879 28.6902 12.1697 29.2462C11.1331 29.5318 10.0624 29.6742 8.98718 29.6694C8.22921 29.6716 7.47275 29.6014 6.72815 29.4596C7.5 31.8587 9.0029 33.9562 11.0264 35.4585C13.0498 36.9607 15.4925 37.7925 18.0123 37.8372C13.7317 41.1992 8.44413 43.0227 3.00112 43.0138C2.04203 43.0179 1.08361 42.9626 0.131348 42.8482C5.65572 46.3702 12.0714 48.2403 18.623 48.2383V48.2383Z" fill="#3E4FAB"/>
</svg>
