<svg width="782" height="113" viewBox="0 0 782 113" fill="none" xmlns="http://www.w3.org/2000/svg">
<path d="M74.5234 52.017C72.7714 53.126 72.9104 56.9036 74.732 57.894C77.8214 59.5738 80.4884 61.8696 82.733 64.7814C86.6009 69.6947 88.5349 75.3398 88.5349 81.7167C88.5349 90.9161 85.2942 98.2339 78.8128 103.67C72.4359 109.001 63.4978 111.667 51.9985 111.667H2.72217C1.6176 111.667 0.722168 110.772 0.722168 109.667V3.58761C0.722168 2.48304 1.6176 1.58761 2.72217 1.58761H50.2736C61.4593 1.58761 70.1883 4.14882 76.4606 9.27122C82.8375 14.3936 86.026 21.3455 86.026 30.1267C86.026 36.6082 84.3011 41.9919 80.8513 46.278C79.0685 48.5621 76.9592 50.4751 74.5234 52.017ZM27.5364 44.1212C27.5364 45.2258 28.4318 46.1212 29.5364 46.1212H45.099C49.4896 46.1212 52.8348 45.1804 55.1347 43.2987C57.5391 41.3124 58.7413 38.4376 58.7413 34.6742C58.7413 30.9108 57.5391 28.036 55.1347 26.0497C52.8348 24.0635 49.4896 23.0704 45.099 23.0704H29.5364C28.4318 23.0704 27.5364 23.9658 27.5364 25.0704V44.1212ZM47.2943 90.0276C51.7894 90.0276 55.2392 89.0344 57.6436 87.0482C60.1526 84.9574 61.407 81.9781 61.407 78.1101C61.407 74.2422 60.1003 71.2106 57.4868 69.0152C54.9779 66.8199 51.4758 65.7223 46.9807 65.7223H29.5364C28.4318 65.7223 27.5364 66.6177 27.5364 67.7223V88.0276C27.5364 89.1321 28.4318 90.0276 29.5364 90.0276H47.2943Z" fill="white"/>
<path d="M195.2 1.58761C196.699 1.58761 197.665 3.17494 196.977 4.50615L160.605 74.8555C160.458 75.1394 160.381 75.4544 160.381 75.774V109.667C160.381 110.772 159.486 111.667 158.381 111.667H135.567C134.463 111.667 133.567 110.772 133.567 109.667V75.774C133.567 75.4544 133.49 75.1394 133.344 74.8555L96.9716 4.50615C96.2833 3.17494 97.2496 1.58761 98.7482 1.58761H124.605C125.384 1.58761 126.093 2.04048 126.42 2.74793L145.388 43.7508C146.104 45.3003 148.308 45.2972 149.02 43.7457L167.843 2.75303C168.17 2.04282 168.879 1.58761 169.661 1.58761H195.2Z" fill="white"/>
<path d="M261.35 112.765C251.001 112.765 241.488 110.36 232.811 105.552C224.239 100.743 217.391 94.0523 212.269 85.4801C207.251 76.8034 204.742 67.0813 204.742 56.3138C204.742 45.5462 207.251 35.8764 212.269 27.3042C217.391 18.732 224.239 12.0415 232.811 7.23272C241.488 2.42393 251.001 0.0195312 261.35 0.0195312C271.699 0.0195312 281.16 2.42393 289.732 7.23272C298.409 12.0415 305.204 18.732 310.117 27.3042C315.135 35.8764 317.644 45.5462 317.644 56.3138C317.644 67.0813 315.135 76.8034 310.117 85.4801C305.1 94.0523 298.305 100.743 289.732 105.552C281.16 110.36 271.699 112.765 261.35 112.765ZM261.35 88.3027C270.131 88.3027 277.135 85.3756 282.362 79.5214C287.694 73.6672 290.36 65.9313 290.36 56.3138C290.36 46.5916 287.694 38.8557 282.362 33.1061C277.135 27.2519 270.131 24.3248 261.35 24.3248C252.464 24.3248 245.356 27.1997 240.024 32.9493C234.797 38.6989 232.184 46.4871 232.184 56.3138C232.184 66.0359 234.797 73.824 240.024 79.6782C245.356 85.4279 252.464 88.3027 261.35 88.3027Z" fill="white"/>
<path d="M372.391 112.765C364.342 112.765 357.129 111.458 350.752 108.845C344.375 106.231 339.252 102.363 335.384 97.2408C331.984 92.6119 330.034 87.1294 329.536 80.7932C329.447 79.6694 330.357 78.7374 331.485 78.7374H356.159C357.185 78.7374 358.032 79.5163 358.223 80.5239C358.833 83.7422 360.158 86.2828 362.199 88.1459C364.603 90.2366 367.739 91.282 371.607 91.282C375.58 91.282 378.716 90.3935 381.016 88.6163C383.316 86.7346 384.465 84.1734 384.465 80.9327C384.465 78.2147 383.525 75.9671 381.643 74.1899C379.866 72.4128 377.618 70.9492 374.9 69.7993C372.287 68.6493 368.523 67.3426 363.61 65.8791C356.501 63.6837 350.699 61.4884 346.204 59.2931C341.709 57.0978 337.841 53.8571 334.6 49.571C331.36 45.2849 329.739 39.6921 329.739 32.7925C329.739 22.5477 333.45 14.5504 340.873 8.8008C348.295 2.94662 357.965 0.0195312 369.882 0.0195312C382.009 0.0195312 391.783 2.94662 399.205 8.8008C406.118 14.1558 410.039 21.5058 410.967 30.8508C411.08 31.9894 410.164 32.9493 409.019 32.9493H383.999C382.94 32.9493 382.083 32.1189 381.889 31.0779C381.39 28.408 380.158 26.2615 378.193 24.6385C375.789 22.5477 372.705 21.5023 368.941 21.5023C365.701 21.5023 363.087 22.3909 361.101 24.168C359.115 25.8406 358.122 28.2973 358.122 31.538C358.122 35.0923 359.794 37.8626 363.14 39.8489C366.485 41.8351 371.712 43.9782 378.82 46.278C385.929 48.6824 391.679 50.9823 396.069 53.1776C400.564 55.3729 404.432 58.5613 407.673 62.7429C410.914 66.9245 412.534 72.3082 412.534 78.8942C412.534 85.1665 410.914 90.8639 407.673 95.9863C404.537 101.109 399.937 105.186 393.874 108.217C387.811 111.249 380.65 112.765 372.391 112.765Z" fill="white"/>
<path d="M468.865 112.765C460.816 112.765 453.602 111.458 447.226 108.845C440.849 106.231 435.726 102.363 431.858 97.2408C428.458 92.6119 426.508 87.1294 426.01 80.7932C425.921 79.6694 426.831 78.7374 427.958 78.7374H452.633C453.659 78.7374 454.506 79.5163 454.697 80.5239C455.307 83.7422 456.632 86.2828 458.673 88.1459C461.077 90.2366 464.213 91.282 468.081 91.282C472.054 91.282 475.19 90.3935 477.49 88.6163C479.789 86.7346 480.939 84.1734 480.939 80.9327C480.939 78.2147 479.999 75.9671 478.117 74.1899C476.34 72.4128 474.092 70.9492 471.374 69.7993C468.761 68.6493 464.997 67.3426 460.084 65.8791C452.975 63.6837 447.173 61.4884 442.678 59.2931C438.183 57.0978 434.315 53.8571 431.074 49.571C427.834 45.2849 426.213 39.6921 426.213 32.7925C426.213 22.5477 429.924 14.5504 437.347 8.8008C444.769 2.94662 454.439 0.0195312 466.356 0.0195312C478.483 0.0195312 488.257 2.94662 495.679 8.8008C502.592 14.1558 506.513 21.5058 507.44 30.8508C507.554 31.9894 506.637 32.9493 505.493 32.9493H480.473C479.414 32.9493 478.557 32.1189 478.362 31.0779C477.864 28.408 476.632 26.2615 474.667 24.6385C472.263 22.5477 469.179 21.5023 465.415 21.5023C462.175 21.5023 459.561 22.3909 457.575 24.168C455.589 25.8406 454.596 28.2973 454.596 31.538C454.596 35.0923 456.268 37.8626 459.613 39.8489C462.959 41.8351 468.186 43.9782 475.294 46.278C482.403 48.6824 488.153 50.9823 492.543 53.1776C497.038 55.3729 500.906 58.5613 504.147 62.7429C507.388 66.9245 509.008 72.3082 509.008 78.8942C509.008 85.1665 507.388 90.8639 504.147 95.9863C501.011 101.109 496.411 105.186 490.348 108.217C484.285 111.249 477.124 112.765 468.865 112.765Z" fill="white"/>
<path d="M538.054 112.922C533.35 112.922 529.482 111.563 526.451 108.845C523.524 106.022 522.06 102.572 522.06 98.4952C522.06 94.3137 523.524 90.8116 526.451 87.9891C529.482 85.1665 533.35 83.7552 538.054 83.7552C542.654 83.7552 546.418 85.1665 549.345 87.9891C552.376 90.8116 553.892 94.3137 553.892 98.4952C553.892 102.572 552.376 106.022 549.345 108.845C546.418 111.563 542.654 112.922 538.054 112.922Z" fill="white"/>
<path d="M692.428 1.58761C693.533 1.58761 694.428 2.48304 694.428 3.58761V109.667C694.428 110.772 693.533 111.667 692.428 111.667H669.614C668.509 111.667 667.614 110.772 667.614 109.667V56.7377C667.614 54.509 664.519 53.9507 663.74 56.0389L643.48 110.366C643.188 111.148 642.441 111.667 641.606 111.667H622.742C621.908 111.667 621.161 111.15 620.869 110.368L600.453 55.8384C599.672 53.7526 596.58 54.3125 596.58 56.5397V109.667C596.58 110.772 595.684 111.667 594.58 111.667H571.765C570.661 111.667 569.765 110.772 569.765 109.667V3.58761C569.765 2.48304 570.661 1.58761 571.765 1.58761H600.093C600.908 1.58761 601.641 2.08149 601.947 2.83629L630.469 73.2005C631.145 74.8686 633.508 74.8644 634.179 73.194L662.406 2.84286C662.71 2.08458 663.445 1.58761 664.262 1.58761H692.428Z" fill="white"/>
<path d="M742.525 23.0704C741.42 23.0704 740.525 23.9658 740.525 25.0704V43.3372C740.525 44.4417 741.42 45.3372 742.525 45.3372H774.434C775.538 45.3372 776.434 46.2326 776.434 47.3372V64.0359C776.434 65.1405 775.538 66.0359 774.434 66.0359H742.525C741.42 66.0359 740.525 66.9313 740.525 68.0359V88.1844C740.525 89.2889 741.42 90.1844 742.525 90.1844H779.138C780.243 90.1844 781.138 91.0798 781.138 92.1844V109.667C781.138 110.772 780.243 111.667 779.138 111.667H715.71C714.606 111.667 713.71 110.772 713.71 109.667V3.58761C713.71 2.48304 714.606 1.58761 715.71 1.58761H779.138C780.243 1.58761 781.138 2.48304 781.138 3.58761V21.0704C781.138 22.1749 780.243 23.0704 779.138 23.0704H742.525Z" fill="white"/>
</svg>
