<svg width="49" height="50" viewBox="0 0 49 50" fill="none" xmlns="http://www.w3.org/2000/svg">
<g filter="url(#filter0_d_1468_242)">
<path d="M16.9988 25.7165C13.7911 25.9228 10.8801 27.1444 9.22832 31.497C9.04044 31.9935 8.58871 32.2949 8.06184 32.2949C7.17358 32.2949 4.42725 30.0826 3.64453 29.5485C3.64533 36.1325 6.67788 41.9194 13.8791 41.9194C19.9442 41.9194 24.1128 38.4199 24.1128 32.3101C24.1128 32.0614 24.0609 31.824 24.0353 31.5801L16.9988 25.7165V25.7165ZM40.2542 0.984375C39.0421 0.984375 37.906 1.52085 37.0394 2.29957C20.6965 16.8987 18.996 17.2417 18.996 21.539C18.996 22.6344 19.2558 23.6785 19.6939 24.6331L24.7964 28.885C25.3729 29.0289 25.9669 29.1272 26.5865 29.1272C31.5523 29.1272 34.4305 25.4918 43.469 8.62291C44.0591 7.47561 44.5804 6.23637 44.5804 4.94596C44.5804 2.63457 42.5016 0.984375 40.2542 0.984375Z" fill="white"/>
</g>
<defs>
<filter id="filter0_d_1468_242" x="0.00586247" y="0.984375" width="48.2129" height="48.2123" filterUnits="userSpaceOnUse" color-interpolation-filters="sRGB">
<feFlood flood-opacity="0" result="BackgroundImageFix"/>
<feColorMatrix in="SourceAlpha" type="matrix" values="0 0 0 0 0 0 0 0 0 0 0 0 0 0 0 0 0 0 127 0" result="hardAlpha"/>
<feOffset dy="3.63867"/>
<feGaussianBlur stdDeviation="1.81933"/>
<feComposite in2="hardAlpha" operator="out"/>
<feColorMatrix type="matrix" values="0 0 0 0 0 0 0 0 0 0 0 0 0 0 0 0 0 0 0.25 0"/>
<feBlend mode="normal" in2="BackgroundImageFix" result="effect1_dropShadow_1468_242"/>
<feBlend mode="normal" in="SourceGraphic" in2="effect1_dropShadow_1468_242" result="shape"/>
</filter>
</defs>
</svg>
