<svg width="49" height="47" viewBox="0 0 49 47" fill="none" xmlns="http://www.w3.org/2000/svg">
<g filter="url(#filter0_d_1468_236)">
<path d="M42.2706 16.0779H25.9797L35.7657 13.4491L41.7141 11.8565C42.0077 11.7803 42.2829 11.646 42.5235 11.4614C42.7642 11.2768 42.9652 11.0457 43.1149 10.782C43.42 10.2534 43.5028 9.62539 43.3451 9.03583L41.7525 3.10664C41.4873 2.12479 40.8433 1.28834 39.9618 0.781043C39.0803 0.273745 38.0335 0.137089 37.0514 0.401095L7.40545 8.34505C6.42286 8.61056 5.58506 9.25372 5.07466 10.1343C4.56427 11.0149 4.42266 12.0616 4.68071 13.0462L6.19658 18.6875V35.2662C6.20163 36.2825 6.60757 37.2557 7.32618 37.9743C8.04479 38.6929 9.01799 39.0988 10.0342 39.1039H40.7355C41.7518 39.0988 42.725 38.6929 43.4436 37.9743C44.1622 37.2557 44.5681 36.2825 44.5732 35.2662V18.3805C44.5732 17.7698 44.3306 17.1842 43.8988 16.7523C43.4669 16.3205 42.8813 16.0779 42.2706 16.0779ZM25.4616 8.26829L29.2225 10.4366L22.1612 12.3362L18.4003 10.1679L25.4616 8.26829ZM37.5119 5.04466L38.2986 8.01885L35.5163 8.76719L31.7554 6.57973L37.5119 5.04466ZM12.1258 11.8565L15.8867 14.0248L10.1302 15.5598L9.32428 12.5857L12.1258 11.8565ZM39.968 34.4987H10.8018V20.6831H39.968V34.4987Z" fill="white"/>
</g>
<defs>
<filter id="filter0_d_1468_236" x="0.916019" y="0.269531" width="47.2959" height="46.1117" filterUnits="userSpaceOnUse" color-interpolation-filters="sRGB">
<feFlood flood-opacity="0" result="BackgroundImageFix"/>
<feColorMatrix in="SourceAlpha" type="matrix" values="0 0 0 0 0 0 0 0 0 0 0 0 0 0 0 0 0 0 127 0" result="hardAlpha"/>
<feOffset dy="3.63867"/>
<feGaussianBlur stdDeviation="1.81933"/>
<feComposite in2="hardAlpha" operator="out"/>
<feColorMatrix type="matrix" values="0 0 0 0 0 0 0 0 0 0 0 0 0 0 0 0 0 0 0.25 0"/>
<feBlend mode="normal" in2="BackgroundImageFix" result="effect1_dropShadow_1468_236"/>
<feBlend mode="normal" in="SourceGraphic" in2="effect1_dropShadow_1468_236" result="shape"/>
</filter>
</defs>
</svg>
