<svg width="38" height="44" viewBox="0 0 38 44" fill="none" xmlns="http://www.w3.org/2000/svg">
<g filter="url(#filter0_d_1468_255)">
<path d="M17.992 0.0649017C17.8219 0.0125846 17.6419 0.00091656 17.4665 0.0308367C17.2911 0.0607568 17.1252 0.131429 16.982 0.23717C16.8389 0.34291 16.7226 0.480766 16.6425 0.639649C16.5623 0.798531 16.5206 0.974005 16.5206 1.15195V23.6776C15.2788 22.4861 13.66 21.7654 11.9437 21.6397C10.2273 21.514 8.52081 21.9912 7.11859 22.9889C5.71637 23.9867 4.7063 25.4426 4.26258 27.1054C3.81887 28.7682 3.96932 30.5337 4.68799 32.0974C5.40667 33.6612 6.6485 34.9251 8.19933 35.6713C9.75016 36.4174 11.5128 36.599 13.1831 36.1846C14.8535 35.7703 16.3269 34.7861 17.3493 33.4017C18.3716 32.0173 18.8788 30.3195 18.7834 28.6012C18.7909 28.5484 18.7947 28.4952 18.7948 28.442V11.7882L32.1055 15.8817C32.2754 15.934 32.4552 15.9457 32.6304 15.9159C32.8057 15.8861 32.9715 15.8156 33.1146 15.7101C33.2576 15.6047 33.374 15.4671 33.4543 15.3085C33.5346 15.1499 33.5766 14.9747 33.5769 14.797V9.05924C33.5771 7.8431 33.1874 6.65893 32.4649 5.68065C31.7425 4.70237 30.7254 3.98152 29.563 3.62397L17.992 0.0649017V0.0649017Z" fill="white"/>
</g>
<defs>
<filter id="filter0_d_1468_255" x="0.374027" y="0.0146484" width="36.8418" height="43.6647" filterUnits="userSpaceOnUse" color-interpolation-filters="sRGB">
<feFlood flood-opacity="0" result="BackgroundImageFix"/>
<feColorMatrix in="SourceAlpha" type="matrix" values="0 0 0 0 0 0 0 0 0 0 0 0 0 0 0 0 0 0 127 0" result="hardAlpha"/>
<feOffset dy="3.63867"/>
<feGaussianBlur stdDeviation="1.81933"/>
<feComposite in2="hardAlpha" operator="out"/>
<feColorMatrix type="matrix" values="0 0 0 0 0 0 0 0 0 0 0 0 0 0 0 0 0 0 0.25 0"/>
<feBlend mode="normal" in2="BackgroundImageFix" result="effect1_dropShadow_1468_255"/>
<feBlend mode="normal" in="SourceGraphic" in2="effect1_dropShadow_1468_255" result="shape"/>
</filter>
</defs>
</svg>
