<svg width="58" height="58" viewBox="0 0 58 58" fill="none" xmlns="http://www.w3.org/2000/svg">
<g clip-path="url(#clip0_1176_527)">
<path d="M41.0873 2.18622L35.6045 7.66903L50.3311 22.3956L55.8139 16.9128C58.6459 14.0807 58.6459 9.49286 55.8139 6.66083L51.3506 2.18622C48.5186 -0.645813 43.9307 -0.645813 41.0986 2.18622H41.0873ZM33.0443 10.2292L6.63847 36.6464C5.46035 37.8245 4.59941 39.2858 4.12363 40.8831L0.113473 54.5108C-0.16973 55.4737 0.0908165 56.5046 0.79316 57.2069C1.4955 57.9093 2.52636 58.1698 3.47793 57.8979L17.1057 53.8878C18.7029 53.412 20.1643 52.5511 21.3424 51.3729L47.7709 24.9557L33.0443 10.2292Z" fill="white" fill-opacity="0.64"/>
</g>
<defs>
<clipPath id="clip0_1176_527">
<rect width="58" height="58" fill="white"/>
</clipPath>
</defs>
</svg>
