<svg width="30" height="32" viewBox="0 0 30 32" fill="none" xmlns="http://www.w3.org/2000/svg">
<path d="M13.9993 15.9999C17.9114 15.9999 21.0827 12.8286 21.0827 8.91659C21.0827 5.00457 17.9114 1.83325 13.9993 1.83325C10.0873 1.83325 6.91602 5.00457 6.91602 8.91659C6.91602 12.8286 10.0873 15.9999 13.9993 15.9999Z" stroke="white" stroke-width="2.83333"/>
<path d="M21.0821 30.1667H4.45895C4.05716 30.1668 3.65994 30.0815 3.29367 29.9163C2.92739 29.7511 2.60043 29.51 2.33448 29.2088C2.06854 28.9076 1.86969 28.5533 1.75114 28.1694C1.63259 27.7855 1.59705 27.3808 1.64687 26.9821L2.19937 22.5564C2.32785 21.5282 2.82754 20.5824 3.60446 19.8968C4.38139 19.2112 5.38202 18.833 6.4182 18.8334H6.91545M23.9155 17.4167V25.9167M19.6655 21.6667H28.1655" stroke="white" stroke-width="2.83333" stroke-linecap="round" stroke-linejoin="round"/>
</svg>
