<svg width="51" height="38" viewBox="0 0 51 38" fill="none" xmlns="http://www.w3.org/2000/svg">
<g filter="url(#filter0_d_1468_246)">
<path d="M44.2039 0.505066H6.38397C5.71622 0.505066 5.07582 0.770329 4.60364 1.2425C4.13147 1.71467 3.86621 2.35507 3.86621 3.02282V27.4504C3.86621 28.1182 4.13147 28.7586 4.60364 29.2307C5.07582 29.7029 5.71622 29.9682 6.38397 29.9682H44.2039C44.8716 29.9682 45.512 29.7029 45.9842 29.2307C46.4564 28.7586 46.7216 28.1182 46.7216 27.4504V3.02282C46.7216 2.35507 46.4564 1.71467 45.9842 1.2425C45.512 0.770329 44.8716 0.505066 44.2039 0.505066V0.505066ZM33.5704 16.3482L20.4861 22.1872C20.2823 22.2788 20.0589 22.318 19.8362 22.3012C19.6135 22.2844 19.3985 22.2121 19.2108 22.091C19.0231 21.9699 18.8687 21.8037 18.7616 21.6077C18.6546 21.4116 18.5982 21.1919 18.5978 20.9685V9.29043C18.5982 9.06706 18.6546 8.84735 18.7616 8.6513C18.8687 8.45526 19.0231 8.28911 19.2108 8.16799C19.3985 8.04686 19.6135 7.9746 19.8362 7.95779C20.0589 7.94098 20.2823 7.98014 20.4861 8.07173L33.5704 13.8974C33.808 14.0022 34.0101 14.1738 34.1519 14.3914C34.2938 14.6089 34.3693 14.8631 34.3693 15.1228C34.3693 15.3825 34.2938 15.6366 34.1519 15.8542C34.0101 16.0718 33.808 16.2434 33.5704 16.3482V16.3482Z" fill="white"/>
</g>
<defs>
<filter id="filter0_d_1468_246" x="0.227542" y="0.505066" width="50.1328" height="36.7404" filterUnits="userSpaceOnUse" color-interpolation-filters="sRGB">
<feFlood flood-opacity="0" result="BackgroundImageFix"/>
<feColorMatrix in="SourceAlpha" type="matrix" values="0 0 0 0 0 0 0 0 0 0 0 0 0 0 0 0 0 0 127 0" result="hardAlpha"/>
<feOffset dy="3.63867"/>
<feGaussianBlur stdDeviation="1.81933"/>
<feComposite in2="hardAlpha" operator="out"/>
<feColorMatrix type="matrix" values="0 0 0 0 0 0 0 0 0 0 0 0 0 0 0 0 0 0 0.25 0"/>
<feBlend mode="normal" in2="BackgroundImageFix" result="effect1_dropShadow_1468_246"/>
<feBlend mode="normal" in="SourceGraphic" in2="effect1_dropShadow_1468_246" result="shape"/>
</filter>
</defs>
</svg>
