<svg width="42" height="42" viewBox="0 0 42 42" fill="none" xmlns="http://www.w3.org/2000/svg">
<path d="M5.25 30.1875V36.75H11.8125L31.1675 17.395L24.605 10.8325L5.25 30.1875ZM10.36 33.25H8.75V31.64L24.605 15.785L26.215 17.395L10.36 33.25ZM36.2425 9.8525L32.1475 5.7575C31.7975 5.4075 31.36 5.25 30.905 5.25C30.45 5.25 30.0125 5.425 29.68 5.7575L26.4775 8.96L33.04 15.5225L36.2425 12.32C36.4047 12.1581 36.5334 11.9658 36.6213 11.7541C36.7091 11.5424 36.7543 11.3154 36.7543 11.0862C36.7543 10.8571 36.7091 10.6301 36.6213 10.4184C36.5334 10.2067 36.4047 10.0144 36.2425 9.8525Z" fill="white"/>
</svg>
