<svg width="30" height="31" viewBox="0 0 30 31" fill="none" xmlns="http://www.w3.org/2000/svg">
<path d="M11.8924 5.22783H17.8386C17.8386 4.43931 17.5254 3.68309 16.9678 3.12553C16.4102 2.56796 15.654 2.25473 14.8655 2.25473C14.077 2.25473 13.3208 2.56796 12.7632 3.12553C12.2056 3.68309 11.8924 4.43931 11.8924 5.22783ZM9.66257 5.22783C9.66257 4.54457 9.79715 3.868 10.0586 3.23675C10.3201 2.60551 10.7033 2.03194 11.1865 1.5488C11.6696 1.06567 12.2432 0.682423 12.8744 0.420951C13.5057 0.15948 14.1822 0.0249023 14.8655 0.0249023C15.5488 0.0249023 16.2253 0.15948 16.8566 0.420951C17.4878 0.682423 18.0614 1.06567 18.5445 1.5488C19.0277 2.03194 19.4109 2.60551 19.6724 3.23675C19.9338 3.868 20.0684 4.54457 20.0684 5.22783H28.6161C28.9118 5.22783 29.1954 5.34529 29.4044 5.55438C29.6135 5.76346 29.731 6.04705 29.731 6.34274C29.731 6.63843 29.6135 6.92201 29.4044 7.1311C29.1954 7.34019 28.9118 7.45765 28.6161 7.45765H26.6538L24.9146 25.4613C24.7812 26.8407 24.1387 28.1211 23.1124 29.0525C22.0861 29.9839 20.7497 30.4997 19.3638 30.4992H10.3672C8.98153 30.4993 7.64547 29.9834 6.61953 29.052C5.59359 28.1206 4.9513 26.8405 4.81791 25.4613L3.07716 7.45765H1.11491C0.819219 7.45765 0.535637 7.34019 0.32655 7.1311C0.117463 6.92201 0 6.63843 0 6.34274C0 6.04705 0.117463 5.76346 0.32655 5.55438C0.535637 5.34529 0.819219 5.22783 1.11491 5.22783H9.66257ZM12.6357 12.2889C12.6357 11.9932 12.5182 11.7097 12.3091 11.5006C12.1 11.2915 11.8165 11.174 11.5208 11.174C11.2251 11.174 10.9415 11.2915 10.7324 11.5006C10.5233 11.7097 10.4058 11.9932 10.4058 12.2889V23.4381C10.4058 23.7338 10.5233 24.0173 10.7324 24.2264C10.9415 24.4355 11.2251 24.553 11.5208 24.553C11.8165 24.553 12.1 24.4355 12.3091 24.2264C12.5182 24.0173 12.6357 23.7338 12.6357 23.4381V12.2889ZM18.2102 11.174C17.9145 11.174 17.631 11.2915 17.4219 11.5006C17.2128 11.7097 17.0953 11.9932 17.0953 12.2889V23.4381C17.0953 23.7338 17.2128 24.0173 17.4219 24.2264C17.631 24.4355 17.9145 24.553 18.2102 24.553C18.5059 24.553 18.7895 24.4355 18.9986 24.2264C19.2077 24.0173 19.3251 23.7338 19.3251 23.4381V12.2889C19.3251 11.9932 19.2077 11.7097 18.9986 11.5006C18.7895 11.2915 18.5059 11.174 18.2102 11.174Z" fill="white"/>
</svg>
