<svg width="34" height="31" viewBox="0 0 34 31" fill="none" xmlns="http://www.w3.org/2000/svg">
<path d="M16.8111 19.8334C17.9546 19.8334 19.0513 19.3791 19.8599 18.5705C20.6684 17.7619 21.1227 16.6653 21.1227 15.5218C21.1227 15.3955 21.1169 15.2704 21.1061 15.1468L16.4361 19.8168C16.5597 19.8276 16.6845 19.8334 16.8111 19.8334ZM31.0825 2.18506L29.4379 0.542035C29.3802 0.484323 29.3019 0.451904 29.2202 0.451904C29.1386 0.451904 29.0603 0.484323 29.0025 0.542035L24.7941 4.75162C22.4725 3.56516 19.8628 2.97193 16.9651 2.97193C9.56608 2.97193 4.0457 6.82542 0.403939 14.5324C0.257558 14.8424 0.181641 15.1809 0.181641 15.5237C0.181641 15.8665 0.257558 16.205 0.403939 16.515C1.8591 19.58 3.61133 22.0368 5.66062 23.8851L1.58809 27.9561C1.53038 28.0138 1.49796 28.0921 1.49796 28.1738C1.49796 28.2554 1.53038 28.3337 1.58809 28.3915L3.2315 30.0349C3.28925 30.0926 3.36755 30.125 3.4492 30.125C3.53084 30.125 3.60914 30.0926 3.66689 30.0349L31.0825 2.62084C31.1111 2.59224 31.1338 2.55827 31.1493 2.52089C31.1648 2.4835 31.1728 2.44342 31.1728 2.40295C31.1728 2.36248 31.1648 2.3224 31.1493 2.28502C31.1338 2.24763 31.1111 2.21366 31.0825 2.18506ZM10.0357 15.5218C10.0356 14.3515 10.3386 13.2011 10.9153 12.1828C11.4919 11.1644 12.3224 10.3128 13.326 9.71083C14.3296 9.10887 15.472 8.77712 16.6419 8.74789C17.8118 8.71865 18.9693 8.99294 20.0017 9.54403L18.13 11.4157C17.3752 11.174 16.5683 11.1449 15.798 11.3316C15.0277 11.5183 14.3238 11.9135 13.7633 12.474C13.2029 13.0344 12.8076 13.7384 12.6209 14.5087C12.4343 15.279 12.4634 16.0858 12.7051 16.8406L10.8334 18.7123C10.3081 17.731 10.0341 16.6348 10.0357 15.5218Z" fill="white"/>
<path d="M33.5267 14.5287C32.1716 11.6748 30.5587 9.34771 28.6881 7.54736L23.1392 13.0966C23.6069 14.3193 23.7106 15.6513 23.4377 16.9317C23.1648 18.212 22.5269 19.3859 21.6013 20.3116C20.6756 21.2373 19.5016 21.8751 18.2213 22.1481C16.9409 22.421 15.609 22.3173 14.3863 21.8495L9.67969 26.5561C11.8632 27.5665 14.2918 28.0717 16.9655 28.0717C24.3645 28.0717 29.8849 24.2182 33.5267 16.5112C33.6731 16.2013 33.749 15.8628 33.749 15.52C33.749 15.1772 33.6731 14.8386 33.5267 14.5287Z" fill="white"/>
</svg>
